<mxfile host="app.diagrams.net" modified="2021-12-20T10:23:35.696Z" agent="5.0 (Windows NT 10.0; Win64; x64) AppleWebKit/537.36 (KHTML, like Gecko) Chrome/96.0.4664.110 Safari/537.36" etag="xZV4rRdjPttTWh93BuQe" version="16.0.0" type="github" pages="2">
  <diagram id="j0XH334-E_OCAcwZl6di" name="Usecase">
    <mxGraphModel dx="868" dy="472" grid="1" gridSize="10" guides="1" tooltips="1" connect="1" arrows="1" fold="1" page="0" pageScale="1" pageWidth="827" pageHeight="1169" math="0" shadow="0">
      <root>
        <mxCell id="rBiiECS7z7tVnE24ZR0C-0" />
        <mxCell id="rBiiECS7z7tVnE24ZR0C-1" parent="rBiiECS7z7tVnE24ZR0C-0" />
        <mxCell id="rBiiECS7z7tVnE24ZR0C-6" value="&lt;font style=&quot;font-size: 8px&quot;&gt;Sistem Cafe17 Purwokerto&lt;/font&gt;" style="shape=umlFrame;whiteSpace=wrap;html=1;" parent="rBiiECS7z7tVnE24ZR0C-1" vertex="1">
          <mxGeometry x="250" y="200" width="320" height="680" as="geometry" />
        </mxCell>
        <mxCell id="rBiiECS7z7tVnE24ZR0C-2" value="Login" style="ellipse;whiteSpace=wrap;html=1;" parent="rBiiECS7z7tVnE24ZR0C-1" vertex="1">
          <mxGeometry x="690" y="425" width="90" height="45" as="geometry" />
        </mxCell>
        <mxCell id="rBiiECS7z7tVnE24ZR0C-3" value="Kasir" style="shape=umlActor;verticalLabelPosition=bottom;verticalAlign=top;html=1;" parent="rBiiECS7z7tVnE24ZR0C-1" vertex="1">
          <mxGeometry x="140" y="570" width="30" height="60" as="geometry" />
        </mxCell>
        <mxCell id="rBiiECS7z7tVnE24ZR0C-5" value="Pelanggan" style="shape=umlActor;verticalLabelPosition=bottom;verticalAlign=top;html=1;" parent="rBiiECS7z7tVnE24ZR0C-1" vertex="1">
          <mxGeometry x="150" y="392" width="30" height="60" as="geometry" />
        </mxCell>
        <mxCell id="rBiiECS7z7tVnE24ZR0C-9" value="Melihat Blog" style="ellipse;whiteSpace=wrap;html=1;" parent="rBiiECS7z7tVnE24ZR0C-1" vertex="1">
          <mxGeometry x="430" y="300" width="90" height="45" as="geometry" />
        </mxCell>
        <mxCell id="rBiiECS7z7tVnE24ZR0C-10" value="Memesan Produk" style="ellipse;whiteSpace=wrap;html=1;" parent="rBiiECS7z7tVnE24ZR0C-1" vertex="1">
          <mxGeometry x="400" y="357" width="100" height="50" as="geometry" />
        </mxCell>
        <mxCell id="rBiiECS7z7tVnE24ZR0C-11" value="Mengelola Keranjang" style="ellipse;whiteSpace=wrap;html=1;" parent="rBiiECS7z7tVnE24ZR0C-1" vertex="1">
          <mxGeometry x="300" y="407" width="90" height="45" as="geometry" />
        </mxCell>
        <mxCell id="rBiiECS7z7tVnE24ZR0C-12" value="Melihat Menu" style="ellipse;whiteSpace=wrap;html=1;" parent="rBiiECS7z7tVnE24ZR0C-1" vertex="1">
          <mxGeometry x="410" y="240" width="90" height="45" as="geometry" />
        </mxCell>
        <mxCell id="rBiiECS7z7tVnE24ZR0C-33" value="" style="endArrow=open;endSize=12;html=1;rounded=0;strokeColor=default;exitX=0.975;exitY=0.339;exitDx=0;exitDy=0;exitPerimeter=0;" parent="rBiiECS7z7tVnE24ZR0C-1" source="rBiiECS7z7tVnE24ZR0C-5" target="rBiiECS7z7tVnE24ZR0C-12" edge="1">
          <mxGeometry width="160" relative="1" as="geometry">
            <mxPoint x="180" y="410" as="sourcePoint" />
            <mxPoint x="339.9472882783115" y="313.7044434005435" as="targetPoint" />
          </mxGeometry>
        </mxCell>
        <mxCell id="rBiiECS7z7tVnE24ZR0C-34" value="" style="endArrow=open;endSize=12;html=1;rounded=0;strokeColor=default;exitX=1;exitY=0.3333333333333333;exitDx=0;exitDy=0;exitPerimeter=0;" parent="rBiiECS7z7tVnE24ZR0C-1" source="rBiiECS7z7tVnE24ZR0C-5" target="rBiiECS7z7tVnE24ZR0C-9" edge="1">
          <mxGeometry width="160" relative="1" as="geometry">
            <mxPoint x="189.25" y="422.34000000000003" as="sourcePoint" />
            <mxPoint x="310.1768747098163" y="385.1741140122077" as="targetPoint" />
          </mxGeometry>
        </mxCell>
        <mxCell id="rBiiECS7z7tVnE24ZR0C-35" value="" style="endArrow=open;endSize=12;html=1;rounded=0;strokeColor=default;dashed=1;entryX=0.097;entryY=0.149;entryDx=0;entryDy=0;entryPerimeter=0;exitX=0.98;exitY=0.631;exitDx=0;exitDy=0;exitPerimeter=0;" parent="rBiiECS7z7tVnE24ZR0C-1" source="rBiiECS7z7tVnE24ZR0C-10" target="rBiiECS7z7tVnE24ZR0C-2" edge="1">
          <mxGeometry width="160" relative="1" as="geometry">
            <mxPoint x="190" y="455" as="sourcePoint" />
            <mxPoint x="311.9292771430736" y="469.8394747452222" as="targetPoint" />
            <Array as="points" />
          </mxGeometry>
        </mxCell>
        <mxCell id="rBiiECS7z7tVnE24ZR0C-39" value="&amp;lt;&amp;lt;&lt;i&gt;Include&lt;/i&gt;&amp;gt;&amp;gt;" style="edgeLabel;html=1;align=center;verticalAlign=middle;resizable=0;points=[];" parent="rBiiECS7z7tVnE24ZR0C-35" vertex="1" connectable="0">
          <mxGeometry x="-0.1768" relative="1" as="geometry">
            <mxPoint as="offset" />
          </mxGeometry>
        </mxCell>
        <mxCell id="rBiiECS7z7tVnE24ZR0C-38" value="" style="endArrow=open;endSize=12;html=1;rounded=0;strokeColor=default;dashed=1;exitX=1;exitY=0.5;exitDx=0;exitDy=0;entryX=0.044;entryY=0.657;entryDx=0;entryDy=0;entryPerimeter=0;" parent="rBiiECS7z7tVnE24ZR0C-1" source="rBiiECS7z7tVnE24ZR0C-11" target="rBiiECS7z7tVnE24ZR0C-2" edge="1">
          <mxGeometry width="160" relative="1" as="geometry">
            <mxPoint x="501.5799999999999" y="517.6600000000001" as="sourcePoint" />
            <mxPoint x="440.1299999999999" y="551.04" as="targetPoint" />
            <Array as="points" />
          </mxGeometry>
        </mxCell>
        <mxCell id="rBiiECS7z7tVnE24ZR0C-40" value="&amp;lt;&amp;lt;&lt;i&gt;Include&lt;/i&gt;&amp;gt;&amp;gt;" style="edgeLabel;html=1;align=center;verticalAlign=middle;resizable=0;points=[];" parent="rBiiECS7z7tVnE24ZR0C-38" vertex="1" connectable="0">
          <mxGeometry x="0.1505" y="1" relative="1" as="geometry">
            <mxPoint as="offset" />
          </mxGeometry>
        </mxCell>
        <mxCell id="rBiiECS7z7tVnE24ZR0C-41" value="" style="endArrow=open;endSize=12;html=1;rounded=0;strokeColor=default;exitX=1;exitY=0.3333333333333333;exitDx=0;exitDy=0;exitPerimeter=0;" parent="rBiiECS7z7tVnE24ZR0C-1" source="rBiiECS7z7tVnE24ZR0C-5" target="rBiiECS7z7tVnE24ZR0C-10" edge="1">
          <mxGeometry width="160" relative="1" as="geometry">
            <mxPoint x="180" y="410" as="sourcePoint" />
            <mxPoint x="323.6804954207962" y="451.0879499927206" as="targetPoint" />
          </mxGeometry>
        </mxCell>
        <mxCell id="rBiiECS7z7tVnE24ZR0C-42" value="" style="endArrow=open;endSize=12;html=1;rounded=0;strokeColor=default;exitX=1;exitY=0.3333333333333333;exitDx=0;exitDy=0;exitPerimeter=0;entryX=0.116;entryY=0.19;entryDx=0;entryDy=0;entryPerimeter=0;" parent="rBiiECS7z7tVnE24ZR0C-1" source="rBiiECS7z7tVnE24ZR0C-5" target="rBiiECS7z7tVnE24ZR0C-11" edge="1">
          <mxGeometry width="160" relative="1" as="geometry">
            <mxPoint x="190" y="422" as="sourcePoint" />
            <mxPoint x="480.3029112988047" y="408.2525308060557" as="targetPoint" />
          </mxGeometry>
        </mxCell>
        <mxCell id="rBiiECS7z7tVnE24ZR0C-45" value="Membuat akun" style="ellipse;whiteSpace=wrap;html=1;" parent="rBiiECS7z7tVnE24ZR0C-1" vertex="1">
          <mxGeometry x="320" y="215" width="80" height="40" as="geometry" />
        </mxCell>
        <mxCell id="rBiiECS7z7tVnE24ZR0C-46" value="" style="endArrow=open;endSize=12;html=1;rounded=0;strokeColor=default;entryX=0.312;entryY=0.958;entryDx=0;entryDy=0;entryPerimeter=0;exitX=0.993;exitY=0.334;exitDx=0;exitDy=0;exitPerimeter=0;" parent="rBiiECS7z7tVnE24ZR0C-1" source="rBiiECS7z7tVnE24ZR0C-5" target="rBiiECS7z7tVnE24ZR0C-45" edge="1">
          <mxGeometry width="160" relative="1" as="geometry">
            <mxPoint x="180" y="410" as="sourcePoint" />
            <mxPoint x="437.315469391648" y="315.44017773017674" as="targetPoint" />
          </mxGeometry>
        </mxCell>
        <mxCell id="rBiiECS7z7tVnE24ZR0C-48" value="Mengonfirmasi via&amp;nbsp;&lt;i&gt;Whatsapp&lt;/i&gt;" style="ellipse;whiteSpace=wrap;html=1;" parent="rBiiECS7z7tVnE24ZR0C-1" vertex="1">
          <mxGeometry x="120" y="490" width="110" height="55" as="geometry" />
        </mxCell>
        <mxCell id="rBiiECS7z7tVnE24ZR0C-49" value="" style="endArrow=open;endSize=12;html=1;rounded=0;strokeColor=default;exitX=0.909;exitY=0.218;exitDx=0;exitDy=0;exitPerimeter=0;dashed=1;entryX=0.091;entryY=0.77;entryDx=0;entryDy=0;entryPerimeter=0;" parent="rBiiECS7z7tVnE24ZR0C-1" source="rBiiECS7z7tVnE24ZR0C-48" target="rBiiECS7z7tVnE24ZR0C-11" edge="1">
          <mxGeometry width="160" relative="1" as="geometry">
            <mxPoint x="509.95000000000005" y="448.9799999999999" as="sourcePoint" />
            <mxPoint x="497.9200000000001" y="513.9250000000001" as="targetPoint" />
          </mxGeometry>
        </mxCell>
        <mxCell id="rBiiECS7z7tVnE24ZR0C-73" value="&amp;lt;&amp;lt;&lt;i&gt;Include&lt;/i&gt;&amp;gt;&amp;gt;" style="edgeLabel;html=1;align=center;verticalAlign=middle;resizable=0;points=[];" parent="rBiiECS7z7tVnE24ZR0C-49" vertex="1" connectable="0">
          <mxGeometry x="0.133" y="-1" relative="1" as="geometry">
            <mxPoint as="offset" />
          </mxGeometry>
        </mxCell>
        <mxCell id="rBiiECS7z7tVnE24ZR0C-53" value="Mengelola Data Transaksi" style="ellipse;whiteSpace=wrap;html=1;" parent="rBiiECS7z7tVnE24ZR0C-1" vertex="1">
          <mxGeometry x="290" y="470" width="100" height="50" as="geometry" />
        </mxCell>
        <mxCell id="rBiiECS7z7tVnE24ZR0C-59" value="" style="endArrow=open;endSize=12;html=1;rounded=0;strokeColor=default;dashed=1;entryX=0;entryY=1;entryDx=0;entryDy=0;" parent="rBiiECS7z7tVnE24ZR0C-1" source="rBiiECS7z7tVnE24ZR0C-53" target="rBiiECS7z7tVnE24ZR0C-2" edge="1">
          <mxGeometry width="160" relative="1" as="geometry">
            <mxPoint x="420" y="497.5" as="sourcePoint" />
            <mxPoint x="603.96" y="446.56500000000005" as="targetPoint" />
            <Array as="points" />
          </mxGeometry>
        </mxCell>
        <mxCell id="rBiiECS7z7tVnE24ZR0C-60" value="&amp;lt;&amp;lt;&lt;i&gt;Include&lt;/i&gt;&amp;gt;&amp;gt;" style="edgeLabel;html=1;align=center;verticalAlign=middle;resizable=0;points=[];" parent="rBiiECS7z7tVnE24ZR0C-59" vertex="1" connectable="0">
          <mxGeometry x="0.1505" y="1" relative="1" as="geometry">
            <mxPoint as="offset" />
          </mxGeometry>
        </mxCell>
        <mxCell id="rBiiECS7z7tVnE24ZR0C-62" value="" style="endArrow=open;endSize=12;html=1;rounded=0;strokeColor=default;dashed=1;entryX=0.895;entryY=0.828;entryDx=0;entryDy=0;entryPerimeter=0;" parent="rBiiECS7z7tVnE24ZR0C-1" source="rBiiECS7z7tVnE24ZR0C-57" target="rBiiECS7z7tVnE24ZR0C-53" edge="1">
          <mxGeometry width="160" relative="1" as="geometry">
            <mxPoint x="190" y="422" as="sourcePoint" />
            <mxPoint x="322.76" y="480.44999999999993" as="targetPoint" />
          </mxGeometry>
        </mxCell>
        <mxCell id="rBiiECS7z7tVnE24ZR0C-70" value="&amp;lt;&amp;lt;&lt;i&gt;Include&lt;/i&gt;&amp;gt;&amp;gt;" style="edgeLabel;html=1;align=center;verticalAlign=middle;resizable=0;points=[];" parent="rBiiECS7z7tVnE24ZR0C-62" vertex="1" connectable="0">
          <mxGeometry x="-0.339" y="-1" relative="1" as="geometry">
            <mxPoint as="offset" />
          </mxGeometry>
        </mxCell>
        <mxCell id="rBiiECS7z7tVnE24ZR0C-65" value="Melihat Laporan" style="ellipse;whiteSpace=wrap;html=1;" parent="rBiiECS7z7tVnE24ZR0C-1" vertex="1">
          <mxGeometry x="380" y="560" width="100" height="50" as="geometry" />
        </mxCell>
        <mxCell id="rBiiECS7z7tVnE24ZR0C-66" value="" style="endArrow=open;endSize=12;html=1;rounded=0;strokeColor=default;exitX=1;exitY=0.3333333333333333;exitDx=0;exitDy=0;exitPerimeter=0;" parent="rBiiECS7z7tVnE24ZR0C-1" source="rBiiECS7z7tVnE24ZR0C-3" target="rBiiECS7z7tVnE24ZR0C-53" edge="1">
          <mxGeometry width="160" relative="1" as="geometry">
            <mxPoint x="600" y="580" as="sourcePoint" />
            <mxPoint x="432.2149863079119" y="637.3955231580179" as="targetPoint" />
          </mxGeometry>
        </mxCell>
        <mxCell id="rBiiECS7z7tVnE24ZR0C-67" value="" style="endArrow=open;endSize=12;html=1;rounded=0;strokeColor=default;dashed=1;entryX=0;entryY=1;entryDx=0;entryDy=0;exitX=0.954;exitY=0.301;exitDx=0;exitDy=0;exitPerimeter=0;" parent="rBiiECS7z7tVnE24ZR0C-1" source="rBiiECS7z7tVnE24ZR0C-65" target="rBiiECS7z7tVnE24ZR0C-2" edge="1">
          <mxGeometry width="160" relative="1" as="geometry">
            <mxPoint x="427.78999999999996" y="634.34" as="sourcePoint" />
            <mxPoint x="613.180194846603" y="455.40990257669864" as="targetPoint" />
            <Array as="points" />
          </mxGeometry>
        </mxCell>
        <mxCell id="rBiiECS7z7tVnE24ZR0C-68" value="&amp;lt;&amp;lt;&lt;i&gt;Include&lt;/i&gt;&amp;gt;&amp;gt;" style="edgeLabel;html=1;align=center;verticalAlign=middle;resizable=0;points=[];" parent="rBiiECS7z7tVnE24ZR0C-67" vertex="1" connectable="0">
          <mxGeometry x="0.1505" y="1" relative="1" as="geometry">
            <mxPoint as="offset" />
          </mxGeometry>
        </mxCell>
        <mxCell id="rBiiECS7z7tVnE24ZR0C-71" value="Admin" style="shape=umlActor;verticalLabelPosition=bottom;verticalAlign=top;html=1;" parent="rBiiECS7z7tVnE24ZR0C-1" vertex="1">
          <mxGeometry x="140" y="690" width="30" height="60" as="geometry" />
        </mxCell>
        <mxCell id="rBiiECS7z7tVnE24ZR0C-74" value="Mengelola Data Blog" style="ellipse;whiteSpace=wrap;html=1;" parent="rBiiECS7z7tVnE24ZR0C-1" vertex="1">
          <mxGeometry x="400" y="817" width="80" height="40" as="geometry" />
        </mxCell>
        <mxCell id="rBiiECS7z7tVnE24ZR0C-75" value="Mengelola Data Admin dan Kasir" style="ellipse;whiteSpace=wrap;html=1;" parent="rBiiECS7z7tVnE24ZR0C-1" vertex="1">
          <mxGeometry x="390" y="620" width="100" height="50" as="geometry" />
        </mxCell>
        <mxCell id="rBiiECS7z7tVnE24ZR0C-76" value="Mengelola Data Produk" style="ellipse;whiteSpace=wrap;html=1;" parent="rBiiECS7z7tVnE24ZR0C-1" vertex="1">
          <mxGeometry x="390" y="747" width="100" height="50" as="geometry" />
        </mxCell>
        <mxCell id="rBiiECS7z7tVnE24ZR0C-77" value="" style="endArrow=open;endSize=12;html=1;rounded=0;strokeColor=default;exitX=1;exitY=0.3333333333333333;exitDx=0;exitDy=0;exitPerimeter=0;entryX=0.34;entryY=1.01;entryDx=0;entryDy=0;entryPerimeter=0;" parent="rBiiECS7z7tVnE24ZR0C-1" source="rBiiECS7z7tVnE24ZR0C-71" target="rBiiECS7z7tVnE24ZR0C-53" edge="1">
          <mxGeometry width="160" relative="1" as="geometry">
            <mxPoint x="180" y="600" as="sourcePoint" />
            <mxPoint x="390" y="470" as="targetPoint" />
          </mxGeometry>
        </mxCell>
        <mxCell id="rBiiECS7z7tVnE24ZR0C-78" value="" style="endArrow=open;endSize=12;html=1;rounded=0;strokeColor=default;exitX=1;exitY=0.3333333333333333;exitDx=0;exitDy=0;exitPerimeter=0;entryX=0.059;entryY=0.749;entryDx=0;entryDy=0;entryPerimeter=0;" parent="rBiiECS7z7tVnE24ZR0C-1" source="rBiiECS7z7tVnE24ZR0C-71" target="rBiiECS7z7tVnE24ZR0C-65" edge="1">
          <mxGeometry width="160" relative="1" as="geometry">
            <mxPoint x="180" y="720" as="sourcePoint" />
            <mxPoint x="400" y="480" as="targetPoint" />
          </mxGeometry>
        </mxCell>
        <mxCell id="rBiiECS7z7tVnE24ZR0C-79" value="" style="endArrow=open;endSize=12;html=1;rounded=0;strokeColor=default;exitX=1;exitY=0.3333333333333333;exitDx=0;exitDy=0;exitPerimeter=0;entryX=0;entryY=0.5;entryDx=0;entryDy=0;" parent="rBiiECS7z7tVnE24ZR0C-1" source="rBiiECS7z7tVnE24ZR0C-71" target="rBiiECS7z7tVnE24ZR0C-75" edge="1">
          <mxGeometry width="160" relative="1" as="geometry">
            <mxPoint x="180" y="720" as="sourcePoint" />
            <mxPoint x="345.9" y="622.45" as="targetPoint" />
          </mxGeometry>
        </mxCell>
        <mxCell id="rBiiECS7z7tVnE24ZR0C-80" value="" style="endArrow=open;endSize=12;html=1;rounded=0;strokeColor=default;exitX=1;exitY=0.3333333333333333;exitDx=0;exitDy=0;exitPerimeter=0;entryX=0;entryY=0;entryDx=0;entryDy=0;" parent="rBiiECS7z7tVnE24ZR0C-1" source="rBiiECS7z7tVnE24ZR0C-71" target="rBiiECS7z7tVnE24ZR0C-74" edge="1">
          <mxGeometry width="160" relative="1" as="geometry">
            <mxPoint x="180" y="720" as="sourcePoint" />
            <mxPoint x="424" y="665" as="targetPoint" />
          </mxGeometry>
        </mxCell>
        <mxCell id="rBiiECS7z7tVnE24ZR0C-81" value="" style="endArrow=open;endSize=12;html=1;rounded=0;strokeColor=default;" parent="rBiiECS7z7tVnE24ZR0C-1" target="rBiiECS7z7tVnE24ZR0C-76" edge="1">
          <mxGeometry width="160" relative="1" as="geometry">
            <mxPoint x="170" y="710" as="sourcePoint" />
            <mxPoint x="404.47590326762156" y="712.4071139992029" as="targetPoint" />
          </mxGeometry>
        </mxCell>
        <mxCell id="rBiiECS7z7tVnE24ZR0C-57" value="Mencetak Bukti Transaksi" style="ellipse;whiteSpace=wrap;html=1;" parent="rBiiECS7z7tVnE24ZR0C-1" vertex="1">
          <mxGeometry x="470" y="494" width="94" height="47" as="geometry" />
        </mxCell>
        <mxCell id="rBiiECS7z7tVnE24ZR0C-83" value="" style="endArrow=open;endSize=12;html=1;rounded=0;strokeColor=default;exitX=1;exitY=0.3333333333333333;exitDx=0;exitDy=0;exitPerimeter=0;" parent="rBiiECS7z7tVnE24ZR0C-1" source="rBiiECS7z7tVnE24ZR0C-3" target="rBiiECS7z7tVnE24ZR0C-65" edge="1">
          <mxGeometry width="160" relative="1" as="geometry">
            <mxPoint x="180" y="600" as="sourcePoint" />
            <mxPoint x="316.66353813361184" y="523.6325005717862" as="targetPoint" />
          </mxGeometry>
        </mxCell>
        <mxCell id="rBiiECS7z7tVnE24ZR0C-84" value="" style="endArrow=open;endSize=12;html=1;rounded=0;strokeColor=default;dashed=1;entryX=0.281;entryY=0.926;entryDx=0;entryDy=0;exitX=1;exitY=0;exitDx=0;exitDy=0;entryPerimeter=0;" parent="rBiiECS7z7tVnE24ZR0C-1" source="rBiiECS7z7tVnE24ZR0C-75" target="rBiiECS7z7tVnE24ZR0C-2" edge="1">
          <mxGeometry width="160" relative="1" as="geometry">
            <mxPoint x="510.4000000000001" y="595.05" as="sourcePoint" />
            <mxPoint x="613.1801948466054" y="455.4099025766975" as="targetPoint" />
            <Array as="points" />
          </mxGeometry>
        </mxCell>
        <mxCell id="rBiiECS7z7tVnE24ZR0C-85" value="&amp;lt;&amp;lt;&lt;i&gt;Include&lt;/i&gt;&amp;gt;&amp;gt;" style="edgeLabel;html=1;align=center;verticalAlign=middle;resizable=0;points=[];" parent="rBiiECS7z7tVnE24ZR0C-84" vertex="1" connectable="0">
          <mxGeometry x="0.1505" y="1" relative="1" as="geometry">
            <mxPoint as="offset" />
          </mxGeometry>
        </mxCell>
        <mxCell id="rBiiECS7z7tVnE24ZR0C-86" value="" style="endArrow=open;endSize=12;html=1;rounded=0;strokeColor=default;dashed=1;entryX=0.675;entryY=1.038;entryDx=0;entryDy=0;exitX=1;exitY=0;exitDx=0;exitDy=0;entryPerimeter=0;" parent="rBiiECS7z7tVnE24ZR0C-1" source="rBiiECS7z7tVnE24ZR0C-74" target="rBiiECS7z7tVnE24ZR0C-2" edge="1">
          <mxGeometry width="160" relative="1" as="geometry">
            <mxPoint x="524" y="665" as="sourcePoint" />
            <mxPoint x="623.1801948466054" y="465.4099025766975" as="targetPoint" />
            <Array as="points" />
          </mxGeometry>
        </mxCell>
        <mxCell id="rBiiECS7z7tVnE24ZR0C-87" value="&amp;lt;&amp;lt;&lt;i&gt;Include&lt;/i&gt;&amp;gt;&amp;gt;" style="edgeLabel;html=1;align=center;verticalAlign=middle;resizable=0;points=[];" parent="rBiiECS7z7tVnE24ZR0C-86" vertex="1" connectable="0">
          <mxGeometry x="0.1505" y="1" relative="1" as="geometry">
            <mxPoint as="offset" />
          </mxGeometry>
        </mxCell>
        <mxCell id="rBiiECS7z7tVnE24ZR0C-88" value="" style="endArrow=open;endSize=12;html=1;rounded=0;strokeColor=default;dashed=1;entryX=0.5;entryY=1;entryDx=0;entryDy=0;exitX=1;exitY=0.5;exitDx=0;exitDy=0;" parent="rBiiECS7z7tVnE24ZR0C-1" source="rBiiECS7z7tVnE24ZR0C-76" target="rBiiECS7z7tVnE24ZR0C-2" edge="1">
          <mxGeometry width="160" relative="1" as="geometry">
            <mxPoint x="514.9999999999998" y="717.5" as="sourcePoint" />
            <mxPoint x="758.3199999999999" y="478.33500000000004" as="targetPoint" />
            <Array as="points" />
          </mxGeometry>
        </mxCell>
        <mxCell id="rBiiECS7z7tVnE24ZR0C-89" value="&amp;lt;&amp;lt;&lt;i&gt;Include&lt;/i&gt;&amp;gt;&amp;gt;" style="edgeLabel;html=1;align=center;verticalAlign=middle;resizable=0;points=[];" parent="rBiiECS7z7tVnE24ZR0C-88" vertex="1" connectable="0">
          <mxGeometry x="0.1505" y="1" relative="1" as="geometry">
            <mxPoint as="offset" />
          </mxGeometry>
        </mxCell>
        <mxCell id="rBiiECS7z7tVnE24ZR0C-90" value="Mengelola Data Pelanggan" style="ellipse;whiteSpace=wrap;html=1;" parent="rBiiECS7z7tVnE24ZR0C-1" vertex="1">
          <mxGeometry x="390" y="680" width="100" height="50" as="geometry" />
        </mxCell>
        <mxCell id="rBiiECS7z7tVnE24ZR0C-94" value="" style="endArrow=open;endSize=12;html=1;rounded=0;strokeColor=default;dashed=1;exitX=1;exitY=0.5;exitDx=0;exitDy=0;" parent="rBiiECS7z7tVnE24ZR0C-1" source="rBiiECS7z7tVnE24ZR0C-90" target="rBiiECS7z7tVnE24ZR0C-2" edge="1">
          <mxGeometry width="160" relative="1" as="geometry">
            <mxPoint x="510" y="765" as="sourcePoint" />
            <mxPoint x="762.73" y="478.42499999999995" as="targetPoint" />
            <Array as="points" />
          </mxGeometry>
        </mxCell>
        <mxCell id="rBiiECS7z7tVnE24ZR0C-95" value="&amp;lt;&amp;lt;&lt;i&gt;Include&lt;/i&gt;&amp;gt;&amp;gt;" style="edgeLabel;html=1;align=center;verticalAlign=middle;resizable=0;points=[];" parent="rBiiECS7z7tVnE24ZR0C-94" vertex="1" connectable="0">
          <mxGeometry x="0.1505" y="1" relative="1" as="geometry">
            <mxPoint as="offset" />
          </mxGeometry>
        </mxCell>
        <mxCell id="6-1zTbqOGNAhqkhPrihs-5" value="" style="endArrow=open;endSize=12;html=1;rounded=0;strokeColor=default;entryX=0;entryY=0.5;entryDx=0;entryDy=0;" edge="1" parent="rBiiECS7z7tVnE24ZR0C-1" target="rBiiECS7z7tVnE24ZR0C-90">
          <mxGeometry width="160" relative="1" as="geometry">
            <mxPoint x="170" y="710" as="sourcePoint" />
            <mxPoint x="400" y="655" as="targetPoint" />
          </mxGeometry>
        </mxCell>
      </root>
    </mxGraphModel>
  </diagram>
  <diagram id="v6UqELGrU9g84Zir3722" name="Page-2">
    <mxGraphModel dx="868" dy="472" grid="1" gridSize="10" guides="1" tooltips="1" connect="1" arrows="1" fold="1" page="1" pageScale="1" pageWidth="850" pageHeight="1100" math="0" shadow="0">
      <root>
        <mxCell id="un0A6GSOPfImpLD6TJl8-0" />
        <mxCell id="un0A6GSOPfImpLD6TJl8-1" parent="un0A6GSOPfImpLD6TJl8-0" />
        <mxCell id="un0A6GSOPfImpLD6TJl8-2" value="Melihat Menu Makanan" style="swimlane;childLayout=stackLayout;resizeParent=1;resizeParentMax=0;startSize=20;" parent="un0A6GSOPfImpLD6TJl8-1" vertex="1">
          <mxGeometry x="280" width="460" height="480" as="geometry" />
        </mxCell>
        <mxCell id="un0A6GSOPfImpLD6TJl8-3" value="Pelanggan" style="swimlane;startSize=20;" parent="un0A6GSOPfImpLD6TJl8-2" vertex="1">
          <mxGeometry y="20" width="170" height="460" as="geometry" />
        </mxCell>
        <mxCell id="lN7Rc28YmzoVXG30P-OV-11" style="edgeStyle=orthogonalEdgeStyle;rounded=0;orthogonalLoop=1;jettySize=auto;html=1;entryX=0.5;entryY=0;entryDx=0;entryDy=0;" parent="un0A6GSOPfImpLD6TJl8-3" source="un0A6GSOPfImpLD6TJl8-6" target="lN7Rc28YmzoVXG30P-OV-1" edge="1">
          <mxGeometry relative="1" as="geometry" />
        </mxCell>
        <mxCell id="un0A6GSOPfImpLD6TJl8-6" value="" style="ellipse;html=1;shape=endState;fillColor=#000000;strokeColor=#000000;strokeWidth=4;" parent="un0A6GSOPfImpLD6TJl8-3" vertex="1">
          <mxGeometry x="70" y="40" width="30" height="30" as="geometry" />
        </mxCell>
        <mxCell id="lN7Rc28YmzoVXG30P-OV-1" value="Masukan Username dan Password" style="rounded=1;whiteSpace=wrap;html=1;" parent="un0A6GSOPfImpLD6TJl8-3" vertex="1">
          <mxGeometry x="36.25" y="100" width="97.5" height="60" as="geometry" />
        </mxCell>
        <mxCell id="lN7Rc28YmzoVXG30P-OV-19" value="Masuk ke Menu Makanan" style="rounded=1;whiteSpace=wrap;html=1;" parent="un0A6GSOPfImpLD6TJl8-3" vertex="1">
          <mxGeometry x="40" y="210" width="110" height="40" as="geometry" />
        </mxCell>
        <mxCell id="un0A6GSOPfImpLD6TJl8-4" value="Sistem" style="swimlane;startSize=20;" parent="un0A6GSOPfImpLD6TJl8-2" vertex="1">
          <mxGeometry x="170" y="20" width="160" height="460" as="geometry" />
        </mxCell>
        <mxCell id="lN7Rc28YmzoVXG30P-OV-3" value="Memperoses Username dan Password&amp;nbsp;&amp;nbsp;" style="rounded=1;whiteSpace=wrap;html=1;" parent="un0A6GSOPfImpLD6TJl8-4" vertex="1">
          <mxGeometry x="30" y="110" width="110" height="40" as="geometry" />
        </mxCell>
        <mxCell id="lN7Rc28YmzoVXG30P-OV-0" value="Menampilkan Beranda" style="rounded=1;whiteSpace=wrap;html=1;" parent="un0A6GSOPfImpLD6TJl8-4" vertex="1">
          <mxGeometry x="30" y="215" width="100" height="30" as="geometry" />
        </mxCell>
        <mxCell id="lN7Rc28YmzoVXG30P-OV-21" value="Menampilkan Form Pencarian Menu Makanan" style="rounded=1;whiteSpace=wrap;html=1;" parent="un0A6GSOPfImpLD6TJl8-4" vertex="1">
          <mxGeometry x="20" y="270" width="120" height="50" as="geometry" />
        </mxCell>
        <mxCell id="un0A6GSOPfImpLD6TJl8-5" value="Database" style="swimlane;startSize=20;" parent="un0A6GSOPfImpLD6TJl8-2" vertex="1">
          <mxGeometry x="330" y="20" width="130" height="460" as="geometry" />
        </mxCell>
        <mxCell id="lN7Rc28YmzoVXG30P-OV-7" value="" style="rhombus;whiteSpace=wrap;html=1;" parent="un0A6GSOPfImpLD6TJl8-5" vertex="1">
          <mxGeometry x="37" y="160" width="56" height="50" as="geometry" />
        </mxCell>
        <mxCell id="lN7Rc28YmzoVXG30P-OV-15" value="&lt;font style=&quot;font-size: 10px&quot;&gt;Validasi&lt;/font&gt;" style="text;html=1;align=center;verticalAlign=middle;resizable=0;points=[];autosize=1;strokeColor=none;fillColor=none;" parent="un0A6GSOPfImpLD6TJl8-5" vertex="1">
          <mxGeometry x="75" y="190" width="50" height="20" as="geometry" />
        </mxCell>
        <mxCell id="lN7Rc28YmzoVXG30P-OV-8" style="edgeStyle=orthogonalEdgeStyle;rounded=0;orthogonalLoop=1;jettySize=auto;html=1;entryX=0.5;entryY=0;entryDx=0;entryDy=0;" parent="un0A6GSOPfImpLD6TJl8-2" source="lN7Rc28YmzoVXG30P-OV-3" target="lN7Rc28YmzoVXG30P-OV-7" edge="1">
          <mxGeometry relative="1" as="geometry" />
        </mxCell>
        <mxCell id="lN7Rc28YmzoVXG30P-OV-10" style="edgeStyle=orthogonalEdgeStyle;rounded=0;orthogonalLoop=1;jettySize=auto;html=1;entryX=0;entryY=0.5;entryDx=0;entryDy=0;" parent="un0A6GSOPfImpLD6TJl8-2" source="lN7Rc28YmzoVXG30P-OV-1" target="lN7Rc28YmzoVXG30P-OV-3" edge="1">
          <mxGeometry relative="1" as="geometry" />
        </mxCell>
        <mxCell id="lN7Rc28YmzoVXG30P-OV-13" style="edgeStyle=orthogonalEdgeStyle;rounded=0;orthogonalLoop=1;jettySize=auto;html=1;entryX=1;entryY=0.5;entryDx=0;entryDy=0;" parent="un0A6GSOPfImpLD6TJl8-2" source="lN7Rc28YmzoVXG30P-OV-7" target="lN7Rc28YmzoVXG30P-OV-0" edge="1">
          <mxGeometry relative="1" as="geometry">
            <Array as="points">
              <mxPoint x="395" y="250" />
            </Array>
          </mxGeometry>
        </mxCell>
        <mxCell id="lN7Rc28YmzoVXG30P-OV-14" value="Ya" style="edgeLabel;html=1;align=center;verticalAlign=middle;resizable=0;points=[];" parent="lN7Rc28YmzoVXG30P-OV-13" vertex="1" connectable="0">
          <mxGeometry x="-0.0545" y="1" relative="1" as="geometry">
            <mxPoint as="offset" />
          </mxGeometry>
        </mxCell>
        <mxCell id="lN7Rc28YmzoVXG30P-OV-16" style="edgeStyle=orthogonalEdgeStyle;rounded=0;orthogonalLoop=1;jettySize=auto;html=1;entryX=0.5;entryY=1;entryDx=0;entryDy=0;fontSize=10;" parent="un0A6GSOPfImpLD6TJl8-2" source="lN7Rc28YmzoVXG30P-OV-7" target="lN7Rc28YmzoVXG30P-OV-1" edge="1">
          <mxGeometry relative="1" as="geometry" />
        </mxCell>
        <mxCell id="lN7Rc28YmzoVXG30P-OV-17" value="Tidak" style="edgeLabel;html=1;align=center;verticalAlign=middle;resizable=0;points=[];fontSize=10;" parent="lN7Rc28YmzoVXG30P-OV-16" vertex="1" connectable="0">
          <mxGeometry x="-0.1857" y="-2" relative="1" as="geometry">
            <mxPoint as="offset" />
          </mxGeometry>
        </mxCell>
        <mxCell id="lN7Rc28YmzoVXG30P-OV-20" style="edgeStyle=orthogonalEdgeStyle;rounded=0;orthogonalLoop=1;jettySize=auto;html=1;fontSize=10;entryX=0;entryY=0.5;entryDx=0;entryDy=0;" parent="un0A6GSOPfImpLD6TJl8-2" source="lN7Rc28YmzoVXG30P-OV-19" target="lN7Rc28YmzoVXG30P-OV-21" edge="1">
          <mxGeometry relative="1" as="geometry">
            <mxPoint x="95" y="320" as="targetPoint" />
            <Array as="points">
              <mxPoint x="95" y="315" />
            </Array>
          </mxGeometry>
        </mxCell>
        <mxCell id="lN7Rc28YmzoVXG30P-OV-18" style="edgeStyle=orthogonalEdgeStyle;rounded=0;orthogonalLoop=1;jettySize=auto;html=1;fontSize=10;" parent="un0A6GSOPfImpLD6TJl8-1" source="lN7Rc28YmzoVXG30P-OV-0" edge="1">
          <mxGeometry relative="1" as="geometry">
            <mxPoint x="430" y="250" as="targetPoint" />
          </mxGeometry>
        </mxCell>
      </root>
    </mxGraphModel>
  </diagram>
</mxfile>
